<?xml version="1.0" standalone="no"?>
<!DOCTYPE svg PUBLIC "-//W3C//DTD SVG 20010904//EN"
 "http://www.w3.org/TR/2001/REC-SVG-20010904/DTD/svg10.dtd">
<svg version="1.0" xmlns="http://www.w3.org/2000/svg"
 width="929.000000pt" height="938.000000pt" viewBox="0 0 929.000000 938.000000"
 preserveAspectRatio="xMidYMid meet">

<g transform="translate(0.000000,938.000000) scale(0.100000,-0.100000)"
fill="#000000" stroke="none">
<path d="M0 4690 l0 -4690 4645 0 4645 0 0 4690 0 4690 -4645 0 -4645 0 0
-4690z m9190 75 l0 -4525 -4525 0 -4525 0 0 4525 0 4525 4525 0 4525 0 0
-4525z"/>
<path d="M325 9105 c-24 -23 -25 -31 -25 -135 0 -104 1 -112 25 -135 23 -24
31 -25 135 -25 104 0 112 1 135 25 24 23 25 31 25 135 0 104 -1 112 -25 135
-23 24 -31 25 -135 25 -104 0 -112 -1 -135 -25z m186 -96 c5 -11 6 -19 2 -19
-4 0 -2 -5 4 -11 9 -9 9 -19 -2 -39 -12 -23 -21 -27 -55 -27 -34 0 -43 4 -55
26 -11 22 -11 32 0 57 11 28 17 31 54 31 31 0 44 -5 52 -18z"/>
<path d="M2329 5461 c-36 -10 -103 -37 -148 -59 -89 -45 -106 -51 -75 -26 19
15 19 16 -1 9 -68 -22 -323 -242 -415 -360 l-45 -57 -60 5 c-75 6 -115 23
-115 51 0 14 -3 17 -10 10 -29 -29 28 -67 118 -79 l52 -7 -26 -41 c-135 -221
-134 -421 3 -489 40 -19 63 -23 138 -23 133 1 274 50 434 152 29 19 55 33 57
31 2 -2 -2 -20 -8 -40 -9 -31 -8 -41 6 -62 31 -48 95 -30 225 62 45 32 62 40
56 26 -15 -35 -17 -84 -5 -99 44 -53 194 28 363 197 48 48 91 88 96 88 5 0 14
-6 20 -13 8 -11 6 -18 -10 -33 -50 -44 -119 -137 -130 -174 -11 -35 -10 -42 6
-60 34 -37 88 -23 213 56 29 19 54 34 57 34 2 0 1 -15 -2 -34 -11 -72 72 -99
166 -54 55 26 170 139 194 190 21 44 22 82 3 97 -34 29 -62 -24 -35 -68 34
-53 -190 -253 -256 -227 -26 9 -29 35 -9 79 23 51 130 166 178 192 44 24 47
40 5 31 -60 -12 -105 -41 -188 -123 -128 -126 -242 -193 -270 -159 -16 19 -2
45 73 144 31 41 56 78 56 83 0 6 -14 23 -32 39 -29 27 -31 31 -19 56 8 18 9
30 2 37 -17 17 -41 -12 -41 -50 0 -31 -11 -46 -97 -132 -102 -101 -205 -174
-261 -186 -66 -14 -50 36 62 192 36 51 66 94 66 98 0 11 -31 5 -56 -11 -23
-16 -26 -16 -39 2 -11 15 -25 19 -71 17 -71 -2 -154 -41 -239 -112 -117 -98
-294 -192 -421 -225 -34 -9 -98 -16 -141 -16 -67 0 -86 4 -114 23 -107 71 -88
225 56 448 l43 66 58 6 c161 17 412 106 552 194 129 82 212 174 212 234 0 16
-11 40 -23 55 -20 23 -33 28 -83 31 -36 2 -85 -4 -125 -16z m191 -21 c40 -40
21 -97 -57 -171 -121 -116 -339 -221 -556 -268 -53 -12 -108 -21 -123 -21
l-25 0 22 33 c71 103 325 319 454 385 127 64 245 82 285 42z m98 -709 c3 -19
-13 -40 -75 -101 -85 -82 -166 -130 -220 -130 -28 0 -33 4 -33 23 1 29 43 83
110 142 102 88 211 121 218 66z m860 7 c-6 -18 -28 -21 -28 -4 0 9 7 16 16 16
9 0 14 -5 12 -12z"/>
<path d="M6154 5401 c-400 -83 -734 -317 -734 -516 0 -119 109 -166 271 -115
67 20 183 90 192 115 4 8 -13 0 -36 -18 -54 -41 -151 -84 -217 -97 -71 -13
-124 -3 -160 30 -26 24 -30 35 -30 82 0 127 134 265 361 372 198 93 344 133
519 142 272 15 393 -87 335 -282 -42 -142 -241 -302 -413 -334 -57 -10 -164
-1 -180 15 -3 2 29 55 70 117 41 62 92 142 113 178 21 36 51 81 67 100 27 34
40 66 16 42 -20 -20 -32 -13 -13 8 10 11 23 20 30 20 12 0 45 31 45 43 0 16
-22 5 -60 -29 -51 -47 -138 -156 -331 -419 -224 -306 -378 -454 -522 -505 -63
-22 -147 -26 -165 -8 -6 6 -15 9 -19 5 -13 -14 17 -30 66 -35 94 -9 256 56
380 153 59 45 239 227 281 283 24 31 27 32 58 21 51 -18 223 -6 302 21 208 69
365 235 365 385 0 106 -54 174 -170 217 -84 31 -291 35 -421 9z"/>
<path d="M4237 5355 c-121 -41 -380 -305 -600 -610 -146 -202 -168 -295 -68
-295 40 0 104 33 190 99 30 22 57 39 59 37 2 -3 -4 -16 -13 -29 -10 -16 -15
-40 -13 -64 l3 -38 45 1 c39 0 58 8 120 52 41 28 109 81 150 118 41 36 95 79
119 95 44 28 81 38 81 20 0 -13 -47 -79 -132 -184 -53 -65 -74 -99 -66 -102
32 -13 61 4 109 66 108 135 198 211 267 225 45 9 42 -12 -10 -77 -98 -119
-108 -134 -108 -164 0 -79 72 -74 193 11 26 19 49 34 51 34 3 0 4 -14 4 -30
-1 -33 26 -70 51 -70 25 0 119 47 171 85 26 19 50 35 53 35 3 0 0 -13 -5 -28
-14 -37 -3 -79 23 -87 11 -4 36 -4 54 -1 48 9 172 94 252 171 57 56 60 60 15
24 -156 -130 -253 -189 -288 -175 -32 12 -6 66 104 210 28 38 52 73 52 78 0
14 -43 9 -61 -8 -16 -14 -20 -14 -46 5 -25 19 -34 20 -82 11 -77 -14 -144 -55
-238 -142 -132 -125 -253 -192 -253 -142 0 9 34 63 75 119 41 57 75 110 75
118 0 34 -13 47 -47 47 -39 0 -77 -17 -146 -67 -38 -27 -46 -29 -37 -13 6 12
10 33 8 48 -2 22 -9 28 -35 30 -44 4 -60 -6 -196 -122 -121 -104 -227 -176
-258 -176 -26 0 -32 16 -15 47 11 22 111 159 168 231 8 9 4 12 -16 12 -20 0
-48 -21 -113 -86 -121 -120 -233 -194 -293 -194 -49 0 -39 36 46 162 107 158
134 189 213 244 262 184 461 379 461 452 0 22 -34 31 -73 17z m49 -20 c11 -27
-44 -102 -143 -195 -90 -84 -320 -266 -328 -258 -11 11 199 261 305 362 97 92
154 124 166 91z m704 -590 c38 -45 -188 -245 -277 -245 -37 0 -42 14 -19 59
23 43 138 145 197 174 60 31 81 33 99 12z"/>
<path d="M7249 5211 c-13 -10 -49 -51 -79 -89 -61 -79 -81 -87 -194 -80 -34 2
-55 -1 -53 -7 2 -6 40 -10 85 -10 45 1 82 0 82 -2 0 -1 -33 -46 -73 -100 -40
-54 -101 -140 -136 -191 -69 -103 -132 -157 -255 -217 -88 -43 -155 -55 -180
-30 -19 19 -15 41 15 91 14 24 29 33 57 38 58 9 185 77 201 107 23 41 9 59
-44 59 -62 0 -141 -39 -210 -102 -66 -60 -85 -93 -85 -147 0 -89 95 -105 234
-38 39 19 95 51 125 71 37 25 51 31 46 19 -19 -47 -23 -76 -15 -98 21 -54 100
-39 222 42 40 26 75 49 78 51 3 1 4 -16 2 -37 -3 -33 1 -45 23 -67 24 -24 32
-26 81 -22 107 9 302 130 418 259 39 43 49 49 61 39 22 -19 18 -31 -26 -80
-105 -115 -125 -172 -74 -206 59 -39 193 26 363 176 29 25 52 49 52 54 0 5
-28 -16 -62 -46 -125 -109 -224 -168 -282 -168 -63 0 -53 39 39 153 30 38 55
74 55 82 0 7 -14 25 -30 39 -27 22 -29 27 -18 51 8 19 9 28 0 37 -17 17 -42
-9 -42 -45 0 -46 -157 -196 -270 -259 -125 -69 -217 -86 -234 -42 -7 19 28
103 46 108 131 36 202 73 234 120 40 63 -57 74 -158 19 -28 -15 -85 -59 -127
-96 -120 -109 -220 -171 -269 -165 -64 7 -38 61 161 335 174 240 154 220 231
234 37 6 81 9 97 5 19 -3 28 -2 24 4 -3 6 -42 10 -85 10 l-79 0 54 72 c29 40
51 76 49 80 -8 13 -30 9 -55 -11z m-544 -451 c11 -17 -22 -57 -67 -84 -42 -24
-126 -51 -134 -43 -2 2 18 27 46 56 64 67 137 100 155 71z m689 1 c17 -27 -54
-85 -146 -119 -73 -27 -77 -12 -12 47 62 58 144 95 158 72z"/>
<path d="M4059 4909 c-23 -23 -21 -42 5 -47 20 -4 56 24 56 43 0 11 -21 25
-36 25 -2 0 -13 -9 -25 -21z"/>
<path d="M3734 3899 c-20 -39 -74 -171 -74 -181 0 -20 30 -5 36 17 6 23 11 25
65 25 54 0 59 -2 65 -25 4 -16 13 -25 25 -25 18 0 19 2 3 38 -9 20 -30 70 -46
110 -17 39 -37 72 -44 72 -7 0 -21 -14 -30 -31z m50 -59 c9 -22 16 -43 16 -45
0 -3 -16 -5 -35 -5 -20 0 -35 5 -35 12 0 19 23 78 31 78 4 0 14 -18 23 -40z"/>
<path d="M4010 3820 c0 -89 3 -110 14 -110 10 0 16 14 18 43 2 35 7 43 25 45
18 3 29 -7 50 -42 16 -26 36 -46 46 -46 15 0 14 5 -9 41 l-26 41 21 19 c13 13
21 32 21 54 0 47 -29 65 -102 65 l-58 0 0 -110z m128 52 c5 -34 -15 -52 -59
-52 -39 0 -39 0 -39 41 l0 40 48 -3 c40 -3 47 -6 50 -26z"/>
<path d="M4349 3902 c-66 -59 -43 -168 40 -193 33 -10 47 -9 78 2 36 14 46 38
13 31 -64 -15 -78 -13 -106 11 -38 33 -41 99 -5 128 26 21 90 26 109 7 9 -9
15 -9 23 -1 17 17 -29 43 -78 43 -33 0 -50 -7 -74 -28z"/>
<path d="M4660 3820 c0 -115 13 -146 25 -60 l7 51 57 -3 56 -3 3 -47 c2 -34 7
-48 18 -48 11 0 14 21 14 110 0 89 -3 110 -14 110 -11 0 -16 -14 -18 -47 l-3
-48 -56 -3 -56 -3 -7 51 c-12 88 -26 56 -26 -60z"/>
<path d="M5000 3820 c0 -91 3 -110 15 -110 12 0 15 19 15 110 0 91 -3 110 -15
110 -12 0 -15 -19 -15 -110z"/>
<path d="M5170 3923 c0 -5 19 -54 42 -111 29 -73 46 -102 57 -100 14 3 104
208 95 217 -12 13 -33 -17 -59 -88 -17 -44 -33 -81 -36 -81 -3 0 -21 38 -39
85 -19 49 -39 85 -46 85 -8 0 -14 -3 -14 -7z"/>
<path d="M5510 3814 l0 -116 31 6 c17 3 51 6 75 6 24 0 44 5 44 10 0 6 -27 10
-60 10 l-60 0 0 34 c0 36 15 46 73 46 15 0 27 5 27 10 0 6 -22 10 -50 10 l-50
0 0 35 c0 32 3 35 29 35 43 0 91 11 91 21 0 5 -34 9 -75 9 l-75 0 0 -116z"/>
</g>
</svg>
