<?xml version="1.0" standalone="no"?>
<!DOCTYPE svg PUBLIC "-//W3C//DTD SVG 20010904//EN"
 "http://www.w3.org/TR/2001/REC-SVG-20010904/DTD/svg10.dtd">
<svg version="1.0" xmlns="http://www.w3.org/2000/svg"
 width="2848.000000pt" height="1504.000000pt" viewBox="0 0 2848.000000 1504.000000"
 preserveAspectRatio="xMidYMid meet">

<g transform="translate(0.000000,1504.000000) scale(0.100000,-0.100000)"
fill="#000000" stroke="none">
<path d="M5880 11083 c-242 -24 -437 -72 -625 -153 -151 -65 -211 -93 -253
-115 -55 -29 -98 -32 -124 -8 -16 15 -23 15 -56 4 -66 -24 -402 -230 -432
-266 -7 -8 -17 -15 -22 -15 -9 0 -29 -14 -161 -112 -62 -47 -225 -176 -243
-192 -6 -6 -42 -38 -80 -71 -62 -54 -276 -258 -379 -360 -60 -60 -175 -184
-221 -240 -23 -28 -68 -82 -100 -120 -33 -39 -86 -108 -119 -153 l-60 -81 -75
-1 c-208 -1 -430 51 -489 114 -20 21 -20 24 -5 54 23 46 15 83 -22 104 -37 22
-72 13 -116 -30 -25 -23 -28 -33 -28 -89 0 -77 21 -124 81 -177 78 -71 212
-118 394 -137 61 -7 114 -16 119 -20 5 -5 -1 -24 -15 -46 -14 -21 -41 -63 -61
-93 -32 -49 -173 -329 -211 -420 -26 -62 -74 -213 -90 -285 -36 -160 -41 -197
-41 -350 0 -130 5 -176 22 -248 36 -147 99 -262 196 -359 50 -50 173 -142 201
-149 6 -1 37 -15 70 -30 33 -14 103 -37 155 -50 84 -20 118 -23 295 -22 183 0
212 3 351 31 82 18 175 39 205 48 145 43 307 96 329 107 14 7 75 32 135 56 61
24 124 51 140 61 17 9 92 50 168 89 75 39 192 103 258 142 67 39 127 68 134
66 9 -4 11 -26 7 -80 -7 -121 39 -216 130 -263 48 -25 179 -29 263 -10 82 20
287 117 365 175 30 22 92 67 136 101 45 33 87 60 93 60 9 0 10 -15 4 -57 -18
-132 8 -212 86 -268 66 -48 154 -62 259 -41 138 28 437 194 623 345 30 25 71
57 89 71 55 41 114 90 130 108 9 9 44 41 78 71 87 73 312 306 413 424 45 53
85 97 89 97 3 0 19 -13 35 -30 27 -29 28 -29 10 -56 -10 -15 -32 -41 -49 -59
-61 -61 -232 -251 -277 -305 -126 -156 -179 -280 -179 -422 0 -86 18 -130 72
-181 61 -57 104 -71 209 -70 80 0 108 5 169 28 159 61 299 140 452 256 42 33
82 59 87 59 7 0 11 -27 11 -69 0 -111 57 -201 160 -249 77 -36 227 -38 350 -3
197 54 451 212 636 396 105 104 208 245 280 380 102 191 109 375 18 455 -58
51 -158 53 -215 6 l-31 -26 -34 30 c-31 27 -41 30 -102 30 -69 0 -111 -10
-247 -63 -73 -28 -291 -150 -340 -189 -148 -120 -195 -169 -309 -318 -31 -41
-78 -92 -104 -113 -26 -21 -59 -49 -74 -62 -14 -13 -50 -41 -80 -61 -29 -21
-84 -61 -123 -89 -197 -145 -358 -216 -429 -189 -36 14 -6 153 45 208 11 11
19 23 19 27 0 11 125 174 209 272 139 163 170 220 171 309 0 51 -4 61 -40 107
-22 28 -51 58 -65 67 -13 8 -40 31 -59 49 l-36 33 30 71 c53 124 36 207 -48
232 -124 37 -252 -104 -252 -278 0 -84 -2 -87 -110 -213 -36 -42 -85 -100
-110 -130 -47 -56 -202 -210 -279 -277 -25 -21 -56 -49 -70 -62 -51 -46 -235
-187 -314 -240 -68 -45 -137 -84 -277 -158 -44 -23 -129 -36 -145 -23 -37 31
-9 108 92 251 29 42 53 82 53 88 0 6 3 11 8 11 4 0 18 17 32 38 26 40 140 194
149 202 4 3 18 23 33 45 15 22 41 56 58 75 17 19 46 58 64 85 19 28 53 73 75
100 84 102 100 174 43 196 -16 6 -73 9 -139 7 -104 -4 -115 -6 -155 -34 -24
-16 -44 -32 -46 -36 -7 -15 -24 -8 -65 27 -22 19 -57 40 -76 45 -82 23 -347 5
-426 -29 -11 -5 -55 -21 -98 -36 -42 -15 -80 -31 -83 -36 -3 -5 -12 -9 -20 -9
-8 0 -44 -18 -80 -40 -36 -22 -69 -40 -73 -40 -12 0 -215 -142 -236 -165 -5
-6 -48 -45 -95 -85 -47 -41 -88 -78 -91 -83 -19 -27 -424 -288 -546 -352 -32
-17 -112 -59 -177 -94 -276 -145 -658 -274 -980 -331 -97 -17 -338 -12 -436 9
-212 45 -340 165 -384 360 -38 169 -17 381 56 571 99 256 192 443 316 635 36
55 81 126 101 159 20 32 50 73 66 91 28 29 36 32 114 39 47 4 105 11 130 17
26 6 87 17 136 25 97 15 250 51 495 115 334 88 679 216 995 370 388 189 801
472 961 659 122 143 142 172 190 269 118 240 30 480 -205 558 -42 14 -252 31
-311 26z m202 -184 c70 -15 134 -52 154 -91 38 -73 5 -235 -65 -328 -15 -19
-35 -47 -44 -63 -43 -68 -243 -250 -377 -342 -47 -32 -106 -74 -132 -92 -26
-18 -50 -33 -52 -33 -2 0 -28 -16 -57 -35 -30 -19 -57 -35 -61 -35 -5 0 -25
-11 -46 -23 -73 -46 -358 -186 -463 -227 -30 -12 -58 -25 -64 -30 -5 -5 -41
-20 -80 -35 -38 -15 -92 -36 -120 -47 -126 -49 -409 -136 -565 -174 -168 -40
-519 -114 -544 -114 -16 0 -3 29 24 55 17 16 30 35 30 42 0 8 7 16 14 19 8 3
34 31 58 62 45 60 105 126 284 312 141 147 200 202 354 331 69 57 140 118 158
134 19 17 41 35 51 40 9 6 54 38 101 73 47 35 96 72 110 82 66 49 253 170 315
205 39 21 72 41 75 44 6 8 256 131 265 131 3 0 25 9 48 19 95 43 331 113 422
124 65 8 156 6 207 -4z m431 -2607 c23 -20 22 -31 -11 -94 -159 -301 -682
-708 -923 -718 -104 -5 -102 -5 -96 40 3 22 17 64 32 93 34 65 168 230 243
300 31 28 68 63 82 77 26 27 122 107 179 149 54 41 133 90 181 111 25 11 54
25 64 31 30 17 157 38 196 32 19 -3 43 -12 53 -21z m3039 -55 c-4 -68 23 -123
69 -139 35 -12 37 -32 7 -96 -52 -113 -201 -286 -368 -427 -202 -170 -455
-270 -520 -205 -58 58 16 236 195 470 82 106 267 284 357 343 89 58 221 119
248 114 12 -2 14 -15 12 -60z"/>
<path d="M20165 10865 c-11 -2 -87 -11 -170 -20 -158 -17 -195 -22 -365 -56
-259 -50 -317 -66 -655 -173 -77 -24 -166 -56 -199 -70 -32 -14 -63 -26 -68
-26 -5 0 -38 -13 -73 -30 -35 -16 -68 -30 -72 -30 -4 0 -39 -15 -78 -34 -38
-19 -126 -61 -195 -94 -152 -73 -257 -130 -358 -194 -24 -16 -45 -28 -47 -28
-5 0 -157 -103 -245 -165 -232 -165 -479 -416 -603 -612 -166 -262 -206 -541
-109 -747 36 -76 137 -182 213 -224 101 -55 297 -97 408 -87 20 2 66 6 103 10
65 5 294 58 327 75 9 4 48 20 86 34 94 35 208 94 313 162 189 123 284 206 320
280 15 32 15 38 1 62 -15 28 -45 38 -83 28 -13 -3 -58 -37 -102 -76 -43 -39
-104 -85 -134 -103 -30 -18 -73 -43 -95 -56 -306 -182 -703 -277 -925 -222
-111 28 -146 46 -207 106 -48 48 -65 73 -77 115 -18 62 -21 160 -6 246 12 66
82 243 116 289 12 17 29 45 38 63 24 46 200 245 288 324 241 217 590 430 998
611 19 8 60 26 90 40 225 100 749 266 1015 322 547 116 1073 123 1381 20 217
-73 363 -188 448 -354 36 -68 49 -143 48 -276 0 -111 -4 -143 -26 -218 -26
-88 -84 -212 -128 -277 -13 -19 -53 -78 -89 -130 -64 -94 -206 -246 -329 -353
-230 -199 -609 -408 -841 -465 -111 -28 -311 -46 -419 -39 -122 9 -260 36
-267 54 -3 9 35 74 93 159 119 173 223 331 264 399 16 28 35 58 42 68 31 43
141 217 168 267 44 79 58 101 230 353 85 126 164 243 175 261 40 65 129 182
176 233 40 42 49 59 49 88 0 83 -84 110 -179 58 -152 -85 -417 -360 -674 -701
-18 -23 -42 -54 -55 -70 -13 -15 -34 -43 -46 -62 -13 -19 -31 -41 -40 -49 -9
-7 -16 -19 -16 -25 0 -6 -8 -19 -17 -27 -10 -9 -36 -42 -58 -74 -22 -31 -74
-103 -116 -159 -41 -55 -97 -132 -123 -171 -55 -83 -82 -120 -201 -281 -86
-116 -170 -230 -245 -334 -20 -27 -47 -61 -60 -77 -14 -16 -38 -46 -55 -67
-126 -165 -270 -342 -348 -430 -215 -239 -442 -467 -597 -601 -65 -56 -145
-121 -170 -138 -214 -146 -319 -203 -460 -251 -138 -46 -226 -61 -365 -60
-130 0 -131 0 -212 38 -89 42 -130 43 -158 3 -32 -46 -7 -101 72 -153 148 -98
460 -95 768 10 276 93 416 163 700 347 99 65 341 241 360 263 6 6 26 24 45 40
163 133 427 394 605 599 63 73 117 140 142 177 17 25 46 62 64 82 19 21 47 56
63 79 23 33 33 39 50 34 212 -65 411 -86 634 -67 335 29 751 158 1042 325 58
33 114 65 125 71 48 28 141 89 150 100 6 6 39 34 75 61 68 52 230 209 290 282
98 117 161 221 230 378 50 114 73 244 73 410 -1 172 -17 247 -80 375 -39 80
-62 111 -142 193 -53 53 -99 97 -103 97 -4 0 -26 13 -50 29 -153 102 -356 172
-624 217 -73 12 -178 17 -399 19 -165 2 -309 2 -320 0z"/>
<path d="M12571 10634 c-87 -29 -131 -53 -260 -140 -165 -111 -225 -158 -405
-314 -147 -127 -376 -351 -586 -571 -85 -89 -172 -180 -192 -202 -21 -21 -44
-47 -52 -58 -7 -11 -29 -36 -47 -57 -19 -20 -61 -70 -94 -111 -33 -41 -82
-102 -110 -136 -27 -34 -68 -84 -90 -111 -22 -27 -42 -51 -45 -54 -6 -5 -234
-311 -306 -410 -292 -400 -504 -771 -540 -944 -34 -161 29 -293 165 -341 74
-26 276 7 340 57 13 10 29 18 36 18 17 0 137 64 195 104 25 17 53 36 62 41 10
6 65 42 122 82 57 39 107 69 110 66 2 -3 1 -15 -4 -27 -4 -12 -11 -48 -15 -79
-27 -213 150 -325 392 -248 40 12 75 26 78 31 3 5 29 20 58 33 49 23 175 97
200 118 7 5 48 35 92 66 44 31 97 70 117 87 20 17 54 45 74 61 101 81 335 285
429 374 94 88 275 229 351 273 81 47 102 54 110 34 6 -17 -65 -138 -113 -192
-15 -18 -57 -69 -93 -115 -36 -45 -70 -87 -76 -93 -9 -10 -148 -185 -301 -380
-129 -165 -183 -240 -183 -254 0 -35 30 -41 200 -41 l165 0 67 82 c37 45 126
159 200 252 236 302 598 635 788 724 103 49 147 38 112 -28 -17 -31 -147 -202
-206 -272 -34 -39 -45 -52 -127 -154 -195 -241 -238 -374 -167 -513 30 -57 38
-66 95 -94 58 -28 69 -30 136 -25 99 7 210 46 318 112 50 30 93 55 96 55 3 0
19 11 37 25 55 45 179 135 186 135 4 0 10 -31 13 -69 3 -40 15 -87 27 -110 23
-46 82 -94 138 -112 48 -16 221 -6 263 15 18 9 36 16 41 16 5 0 34 11 64 25
30 14 57 25 60 25 22 0 287 174 347 227 21 18 42 31 46 29 5 -3 6 -46 3 -95
-4 -85 -3 -94 24 -147 35 -70 70 -99 142 -120 71 -21 163 -14 254 19 77 28
267 127 315 163 17 13 35 24 40 24 4 0 58 37 119 83 61 45 137 102 170 126 32
24 64 49 69 55 6 7 46 43 90 80 155 134 323 305 353 362 25 48 -12 103 -62 90
-12 -3 -51 -34 -87 -68 -189 -181 -248 -235 -351 -320 -232 -192 -351 -274
-531 -366 -195 -100 -273 -72 -201 71 27 52 47 83 179 265 162 223 195 268
206 281 7 7 65 84 130 171 135 181 147 215 87 246 -26 14 -52 16 -145 12 -106
-5 -117 -8 -164 -37 -28 -17 -53 -31 -55 -31 -3 0 -22 13 -42 29 -139 109
-528 46 -817 -132 -220 -135 -278 -181 -474 -378 -75 -74 -183 -176 -241 -226
-102 -87 -280 -220 -310 -231 -8 -3 -33 -17 -55 -32 -78 -51 -162 -76 -193
-56 -15 9 -16 41 -1 68 20 38 258 353 330 437 42 49 134 198 158 256 20 48 26
77 26 141 0 73 -3 85 -29 122 -39 57 -127 87 -230 79 -65 -5 -149 -27 -186
-48 -8 -5 -22 -12 -30 -15 -50 -19 -57 -23 -202 -121 -58 -40 -111 -73 -117
-73 -7 0 -11 25 -11 66 0 123 -51 175 -179 182 -147 8 -280 -58 -516 -258 -49
-42 -106 -92 -126 -111 -68 -65 -134 -125 -199 -179 -36 -30 -90 -77 -121
-105 -31 -27 -67 -59 -81 -70 -129 -105 -142 -115 -254 -190 -34 -23 -74 -51
-90 -64 -15 -12 -77 -47 -138 -77 -114 -57 -159 -65 -179 -32 -12 18 10 80 48
133 12 17 48 68 80 115 33 47 65 91 72 99 8 7 32 41 55 75 23 33 47 66 54 71
6 6 54 66 106 135 52 69 127 167 166 219 40 52 73 101 73 110 6 75 -11 86
-129 85 -134 -1 -162 -8 -208 -52 -44 -42 -129 -140 -183 -210 -53 -69 -273
-287 -371 -368 -109 -90 -155 -123 -326 -239 -176 -117 -363 -197 -427 -181
-33 8 -40 46 -20 116 15 53 86 182 125 226 10 11 18 24 18 28 0 4 5 12 10 19
25 30 173 244 183 265 5 12 13 22 17 22 4 0 29 33 56 73 27 39 76 109 109 154
33 45 78 107 100 139 22 31 59 81 83 110 23 29 42 57 42 63 0 6 5 11 10 11 6
0 34 17 63 38 29 20 60 42 69 47 29 17 312 215 388 270 161 117 383 285 446
337 381 312 496 418 697 642 34 38 67 74 73 80 38 40 159 214 191 276 37 72
38 79 38 175 0 111 -12 143 -66 171 -45 23 -152 18 -238 -12z m139 -176 c-1
-115 -217 -382 -590 -730 -63 -58 -133 -121 -155 -138 -22 -17 -42 -35 -45
-39 -3 -4 -43 -38 -90 -76 -47 -37 -87 -71 -90 -74 -3 -4 -34 -28 -70 -54 -36
-27 -73 -55 -83 -63 -9 -8 -43 -32 -75 -54 -32 -21 -66 -48 -77 -60 -10 -11
-23 -20 -28 -20 -6 0 -26 -12 -46 -27 -77 -59 -100 -73 -94 -55 4 9 22 35 40
57 49 60 244 305 278 350 16 21 36 46 45 55 8 9 49 56 90 105 41 50 84 99 95
111 11 11 42 47 70 80 105 126 462 469 545 524 20 14 64 43 96 64 72 47 131
75 162 76 18 0 22 -5 22 -32z m2596 -2159 c40 -33 -2 -124 -117 -254 -95 -109
-129 -144 -164 -175 -22 -19 -57 -52 -79 -72 -22 -21 -43 -38 -47 -38 -4 0
-38 -27 -77 -59 -77 -64 -237 -155 -346 -196 -54 -20 -83 -25 -135 -23 -64 3
-66 4 -63 28 4 32 22 79 42 110 9 14 29 43 43 65 48 72 160 200 252 286 198
187 405 313 551 339 53 9 122 3 140 -11z"/>
<path d="M23755 10141 c-68 -8 -134 -39 -157 -73 -9 -13 -24 -33 -34 -45 -11
-11 -64 -78 -119 -148 -55 -70 -109 -138 -120 -151 -11 -13 -56 -70 -100 -127
l-79 -103 -101 -12 c-324 -38 -449 -37 -511 4 -56 38 -101 29 -129 -27 -31
-58 19 -135 103 -159 96 -27 191 -33 333 -21 78 7 143 10 146 8 4 -5 -119
-177 -152 -213 -5 -6 -28 -37 -50 -68 -35 -50 -82 -113 -115 -153 -5 -6 -17
-24 -27 -40 -10 -16 -45 -65 -77 -108 -186 -249 -211 -284 -325 -455 -39 -58
-74 -109 -79 -115 -4 -5 -20 -30 -37 -55 -58 -88 -118 -149 -228 -233 -16 -12
-34 -27 -40 -33 -7 -5 -43 -31 -80 -58 -38 -26 -90 -62 -115 -80 -56 -39 -151
-92 -281 -156 -250 -123 -468 -174 -569 -131 -74 31 -82 118 -22 242 22 45 41
83 42 85 2 1 55 16 118 33 133 34 269 81 355 121 33 15 86 39 118 54 89 41
219 129 281 190 37 35 67 78 88 121 27 58 30 73 24 122 -9 76 -28 107 -78 130
-120 56 -332 27 -545 -73 -39 -19 -74 -34 -77 -34 -8 0 -194 -119 -227 -144
-14 -12 -43 -34 -65 -50 -38 -29 -207 -196 -250 -246 -26 -32 -94 -152 -116
-205 -73 -181 -61 -365 30 -451 80 -76 240 -123 378 -111 73 7 209 40 250 62
16 8 34 15 41 15 35 0 415 181 454 216 8 8 19 14 23 14 8 0 121 71 158 99 39
31 51 27 41 -11 -13 -52 -9 -210 6 -238 30 -55 76 -102 125 -128 45 -23 62
-26 146 -26 86 0 104 4 190 38 52 20 124 51 160 69 59 28 188 104 200 117 3 3
43 31 90 62 47 32 108 75 135 97 28 21 54 36 58 34 5 -3 5 -22 2 -44 -4 -21
-1 -64 5 -96 30 -145 143 -245 308 -273 108 -18 199 -7 382 43 224 62 698 328
920 517 124 105 339 318 453 450 55 63 104 116 107 118 9 3 60 -55 60 -68 0
-9 -60 -83 -99 -121 -14 -14 -46 -48 -70 -75 -24 -27 -69 -76 -101 -109 -81
-86 -156 -195 -204 -294 -40 -83 -41 -89 -41 -186 0 -90 3 -104 27 -145 58
-99 126 -133 267 -134 205 -1 464 124 861 417 74 55 142 107 150 116 8 9 35
32 60 52 25 20 90 81 145 135 192 190 222 241 173 291 -18 17 -32 23 -45 19
-11 -4 -74 -58 -139 -122 -65 -63 -150 -140 -189 -172 -38 -31 -91 -75 -116
-97 -96 -84 -240 -188 -334 -239 -11 -6 -63 -37 -115 -68 -150 -89 -381 -156
-405 -117 -4 5 -7 29 -7 52 -1 75 68 186 249 400 215 254 250 326 204 419 -25
53 -55 85 -126 139 -30 23 -55 49 -55 58 0 9 11 47 25 85 31 85 32 144 5 179
-27 34 -80 50 -132 42 -96 -17 -189 -172 -175 -294 6 -47 3 -54 -31 -99 -112
-149 -385 -429 -511 -525 -315 -240 -641 -406 -906 -462 -91 -19 -135 -19
-185 1 -67 27 -84 82 -55 181 12 39 53 127 71 151 1 2 38 12 81 21 250 56 536
179 682 294 110 86 148 125 183 185 28 49 30 59 26 127 -4 84 -20 110 -93 145
-61 30 -200 28 -328 -5 -53 -14 -105 -29 -115 -34 -9 -6 -57 -28 -106 -51 -49
-22 -141 -74 -204 -116 -126 -84 -133 -89 -206 -155 -28 -26 -64 -58 -81 -72
-16 -14 -52 -54 -79 -89 -27 -35 -74 -81 -103 -103 -30 -21 -64 -49 -76 -60
-12 -12 -42 -35 -67 -52 -25 -17 -67 -49 -93 -71 -27 -21 -61 -46 -75 -53 -15
-7 -43 -26 -63 -41 -20 -15 -39 -28 -42 -28 -3 0 -25 -13 -49 -29 -36 -24
-171 -91 -243 -121 -51 -21 -84 -27 -120 -21 -32 5 -40 11 -47 36 -9 34 13
124 41 165 9 14 23 38 31 54 20 39 159 248 241 361 36 50 87 122 114 160 27
39 62 86 79 106 17 20 56 72 86 115 52 76 415 572 469 643 53 69 101 141 101
151 0 5 4 10 9 10 5 0 36 38 70 84 57 79 63 84 103 89 24 2 117 14 208 27 170
23 321 23 343 1 12 -12 76 -15 94 -3 15 9 33 56 33 86 0 13 -12 37 -27 55 -52
59 -182 71 -460 44 -54 -5 -63 -3 -63 11 0 9 4 16 9 16 9 0 113 135 132 173 7
12 19 29 28 38 15 15 42 51 142 188 46 64 52 113 17 132 -27 14 -124 19 -203
10z m-2142 -1813 c13 -39 -86 -150 -184 -205 -91 -52 -282 -145 -314 -153 -16
-5 -44 -14 -62 -21 -74 -30 -48 19 75 139 150 145 331 248 444 251 21 1 38 -4
41 -11z m2545 -15 c4 -31 -75 -114 -160 -169 -118 -76 -433 -220 -444 -202
-18 29 184 226 311 302 125 75 179 95 250 93 33 -2 41 -6 43 -24z"/>
<path d="M11966 9050 c-85 -26 -148 -110 -154 -204 -3 -56 -1 -64 27 -97 17
-20 46 -44 65 -53 109 -51 276 27 307 144 22 83 -13 168 -81 202 -37 18 -116
22 -164 8z"/>
<path d="M13195 5352 c-72 -8 -161 -47 -223 -97 -77 -62 -136 -180 -149 -296
-12 -121 40 -280 121 -368 101 -109 264 -158 414 -125 98 21 136 41 205 104
84 77 85 99 4 139 -23 12 -50 27 -60 34 -15 10 -24 6 -63 -36 -64 -66 -94 -79
-180 -80 -61 0 -79 4 -118 27 -93 54 -142 159 -133 281 12 156 93 244 232 253
84 5 152 -20 201 -74 18 -19 37 -34 44 -34 10 0 55 31 102 70 10 8 18 20 18
27 0 19 -93 109 -137 132 -68 34 -191 53 -278 43z"/>
<path d="M10705 5273 c-15 -43 -31 -82 -35 -88 -4 -5 -13 -28 -20 -50 -13 -41
-113 -304 -130 -340 -5 -11 -16 -38 -24 -60 -8 -22 -24 -65 -35 -95 -32 -82
-61 -163 -61 -172 0 -14 186 -9 198 5 8 10 72 183 72 194 0 2 72 2 161 1 l161
-3 33 -85 c18 -47 36 -93 39 -102 5 -16 19 -18 102 -18 l96 0 -5 28 c-6 31
-31 102 -52 148 -28 59 -105 256 -105 266 0 6 -21 60 -46 122 -60 146 -58 141
-87 216 -14 36 -29 75 -32 88 -6 21 -11 22 -104 22 l-98 0 -28 -77z m169 -255
c21 -62 41 -122 46 -133 29 -67 33 -65 -89 -65 -61 0 -111 2 -111 4 0 15 63
199 79 233 12 23 21 49 21 58 0 41 20 4 54 -97z"/>
<path d="M11687 5343 c-3 -5 -3 -44 -1 -88 2 -44 4 -241 4 -437 l0 -358 84 0
c55 0 87 4 93 13 5 6 10 70 12 142 2 84 7 133 14 137 15 10 116 9 140 -1 17
-6 49 -51 79 -111 7 -14 15 -27 19 -30 3 -3 24 -36 46 -75 l39 -70 94 -3 c51
-1 98 2 103 7 6 6 1 23 -14 48 -37 58 -47 76 -58 98 -5 11 -20 36 -33 55 -13
19 -35 54 -48 78 l-24 42 52 49 c56 53 88 114 98 190 16 120 -77 266 -195 306
-35 12 -95 15 -272 15 -125 0 -230 -3 -232 -7z m450 -173 c47 -28 57 -54 54
-139 -1 -25 -10 -42 -37 -68 l-36 -34 -117 3 -116 3 -3 119 c-2 89 1 121 10
128 7 4 58 8 113 8 82 0 106 -4 132 -20z"/>
<path d="M14082 4908 l3 -443 78 -3 c50 -2 84 1 93 9 11 9 14 47 12 188 l-2
176 190 0 189 0 3 -180 c2 -128 6 -181 15 -187 17 -11 165 -10 171 1 3 5 6
204 6 442 l1 434 -96 3 -95 3 0 -176 0 -175 -190 0 c-174 0 -190 1 -191 18 -1
9 -2 87 -3 172 l-1 155 -93 3 -92 3 2 -443z"/>
<path d="M15346 5341 c-7 -11 -6 -839 0 -863 5 -15 18 -18 95 -18 l89 0 0 445
0 445 -89 0 c-50 0 -92 -4 -95 -9z"/>
<path d="M15950 5342 c0 -5 30 -85 66 -178 36 -93 79 -205 94 -249 28 -80 52
-142 71 -180 5 -11 31 -76 58 -145 l49 -125 86 -3 c76 -2 87 -1 92 15 10 31
75 195 100 254 13 31 24 61 24 67 0 5 16 50 36 99 57 142 81 203 114 293 17
47 37 98 45 113 8 16 15 33 15 38 0 6 -40 9 -97 7 l-97 -3 -42 -110 c-69 -183
-162 -440 -169 -468 -4 -15 -12 -27 -19 -27 -6 0 -47 100 -90 223 -44 122 -83
227 -86 232 -4 6 -10 23 -14 40 -4 16 -16 49 -27 72 l-19 43 -95 0 c-52 0 -95
-4 -95 -8z"/>
<path d="M17220 4905 l0 -445 313 2 312 3 3 83 3 82 -221 0 -220 0 -1 23 c-1
19 -1 156 1 180 0 4 83 7 185 7 l185 0 0 75 0 75 -182 2 -183 3 -3 98 -3 97
215 0 c162 0 215 3 218 13 3 6 3 42 0 80 l-4 67 -309 0 -309 0 0 -445z"/>
</g>
</svg>
