<?xml version="1.0" standalone="no"?>
<!DOCTYPE svg PUBLIC "-//W3C//DTD SVG 20010904//EN"
 "http://www.w3.org/TR/2001/REC-SVG-20010904/DTD/svg10.dtd">
<svg version="1.0" xmlns="http://www.w3.org/2000/svg"
 width="1280.000000pt" height="676.000000pt" viewBox="0 0 1280.000000 676.000000"
 preserveAspectRatio="xMidYMid meet">

<g transform="translate(0.000000,676.000000) scale(0.100000,-0.100000)"
fill="#000000" stroke="none">
<path d="M2535 4965 c-81 -18 -178 -52 -249 -87 -43 -22 -67 -28 -89 -24 -23
5 -44 -2 -86 -25 -214 -120 -489 -358 -669 -579 -47 -58 -88 -108 -91 -112 -3
-3 -48 -2 -100 3 -118 11 -156 30 -156 80 0 28 -4 35 -23 37 -34 5 -52 -15
-52 -58 0 -71 81 -123 213 -137 31 -3 57 -7 57 -9 0 -2 -13 -26 -30 -52 -97
-158 -160 -348 -160 -481 0 -133 32 -213 114 -289 55 -51 89 -68 168 -87 213
-50 519 31 847 224 29 17 56 31 60 31 5 0 11 -26 13 -57 4 -46 10 -61 33 -81
25 -21 36 -24 95 -20 76 4 160 41 248 108 29 22 56 40 61 40 5 0 7 -17 4 -38
-6 -44 16 -95 46 -112 39 -20 123 -12 188 19 153 73 363 247 530 440 29 33 53
36 53 6 0 -7 -38 -55 -85 -105 -98 -106 -145 -191 -145 -258 0 -37 6 -50 34
-78 31 -31 39 -34 95 -34 51 0 72 6 145 44 46 24 102 57 124 75 22 17 43 31
46 31 3 0 6 -14 6 -30 0 -92 92 -146 203 -119 76 18 144 51 217 104 87 64 119
96 179 185 85 123 101 225 44 270 -31 24 -45 25 -82 5 -26 -13 -30 -13 -41 0
-44 53 -274 -55 -389 -181 -29 -32 -67 -74 -83 -92 -39 -43 -178 -147 -240
-178 -26 -13 -62 -24 -79 -24 -30 0 -31 1 -25 33 7 35 57 112 116 179 106 121
114 163 45 227 l-46 42 18 49 c17 47 17 50 -1 69 -50 55 -136 -12 -136 -105 0
-105 -399 -458 -563 -498 -75 -18 -37 53 187 349 93 122 94 139 16 143 -38 3
-65 -2 -87 -14 -32 -16 -34 -16 -54 2 -30 27 -161 24 -243 -5 -83 -30 -203
-102 -267 -161 -122 -113 -399 -274 -583 -339 -143 -51 -221 -65 -341 -66 -99
0 -116 3 -160 26 -184 94 -156 352 76 714 60 93 61 94 107 100 26 3 112 20
192 36 499 105 986 373 1108 608 37 74 40 117 12 179 -28 62 -96 92 -205 91
-44 0 -107 -7 -140 -14z m256 -94 c61 -75 -31 -220 -228 -358 -115 -80 -379
-209 -538 -261 -122 -41 -412 -109 -421 -99 -6 6 7 22 132 162 162 182 450
404 647 500 130 63 215 85 310 82 69 -2 81 -5 98 -26z m130 -1141 c19 -11 19
-11 -1 -50 -67 -131 -319 -320 -426 -320 -34 0 -36 2 -30 27 20 77 198 257
317 318 65 34 108 42 140 25z m1369 -29 c0 -17 10 -38 26 -54 l26 -26 -28 -48
c-46 -80 -169 -193 -255 -236 -77 -38 -103 -44 -128 -28 -21 13 -7 74 31 140
47 80 191 222 257 254 30 15 59 27 63 27 4 0 8 -13 8 -29z"/>
<path d="M8995 4875 c-238 -28 -473 -94 -708 -200 -380 -171 -641 -409 -692
-630 -23 -99 -7 -173 53 -237 60 -65 112 -83 232 -82 147 0 266 42 418 147 78
53 117 98 108 122 -9 26 -46 16 -94 -24 -145 -121 -382 -195 -520 -161 -39 9
-60 22 -88 52 -35 40 -36 42 -32 112 13 274 394 566 958 735 240 71 420 97
610 88 222 -11 355 -80 405 -210 24 -64 17 -183 -15 -252 -89 -190 -289 -372
-515 -470 l-90 -39 -147 0 c-86 -1 -151 3 -157 9 -6 7 24 60 88 156 54 80 123
188 155 240 68 113 239 365 267 396 28 29 22 67 -11 71 -78 9 -252 -178 -535
-575 -256 -359 -407 -547 -584 -723 -162 -161 -266 -239 -380 -283 -96 -37
-220 -48 -269 -23 -89 46 -127 -23 -39 -71 25 -14 55 -18 142 -17 97 1 121 4
200 32 128 46 178 72 328 172 160 107 347 281 478 445 l89 113 48 -15 c31 -10
90 -16 172 -16 107 -1 141 3 235 27 300 77 541 238 660 441 73 125 90 302 39
416 -92 204 -403 302 -809 254z"/>
<path d="M5638 4775 c-183 -67 -597 -470 -905 -880 -247 -329 -340 -515 -303
-604 20 -49 53 -64 129 -59 71 6 116 26 246 112 39 25 72 46 75 46 3 0 3 -23
1 -51 -3 -44 0 -54 25 -80 24 -25 35 -29 85 -29 46 0 71 7 123 34 82 43 220
146 356 267 176 157 251 211 264 190 6 -10 -29 -57 -226 -307 -65 -82 -118
-155 -118 -161 0 -10 23 -13 84 -13 l83 0 102 129 c112 143 208 237 319 312
137 91 137 57 1 -110 -55 -69 -109 -142 -120 -162 -26 -52 -25 -107 4 -142 51
-64 150 -49 286 41 107 71 101 69 101 38 0 -72 42 -108 124 -107 65 0 147 35
250 105 38 25 70 46 71 46 2 0 1 -17 -2 -38 -6 -45 16 -95 48 -113 48 -25 111
-16 202 29 183 91 480 347 460 398 -10 27 -39 13 -108 -54 -146 -142 -322
-269 -404 -292 -41 -11 -51 -6 -51 23 0 24 37 81 175 266 112 152 120 164 112
184 -9 24 -108 23 -148 0 -26 -16 -29 -16 -47 0 -48 44 -184 28 -317 -37 -97
-48 -149 -87 -264 -198 -117 -113 -213 -188 -287 -224 -52 -25 -74 -25 -74 0
0 6 47 73 104 149 57 75 111 155 120 177 43 107 -4 162 -129 150 -31 -3 -116
-44 -165 -79 -23 -17 -46 -31 -49 -31 -3 0 -7 17 -8 38 -7 102 -142 95 -274
-15 -26 -21 -100 -86 -165 -144 -171 -152 -341 -269 -390 -269 -44 0 17 101
204 338 92 117 93 136 8 140 l-60 3 -60 -68 c-164 -182 -326 -317 -458 -378
-145 -67 -144 -6 2 200 40 55 79 111 88 125 88 132 149 201 216 246 426 288
758 592 806 740 13 39 8 97 -11 120 -14 18 -82 17 -131 -1z m72 -83 c0 -73
-271 -348 -530 -539 -52 -38 -102 -73 -110 -78 -17 -10 74 109 192 250 201
242 448 444 448 367z m1169 -966 c17 -21 -4 -57 -82 -142 -81 -88 -155 -145
-244 -189 -79 -41 -133 -46 -133 -15 0 29 37 84 110 163 129 140 307 233 349
183z"/>
<path d="M10635 4549 c-11 -6 -69 -72 -128 -148 l-108 -138 -76 -7 c-111 -9
-178 -7 -190 5 -6 6 -21 9 -34 7 -33 -4 -38 -47 -8 -74 18 -16 36 -19 130 -19
60 0 109 -2 109 -4 0 -1 -60 -85 -134 -185 -74 -99 -169 -233 -213 -296 -67
-99 -90 -124 -168 -183 -134 -102 -345 -198 -430 -197 -56 1 -76 67 -39 126
10 16 18 30 19 31 1 2 40 14 87 27 150 44 295 126 332 188 20 33 21 102 1 122
-69 68 -309 -15 -468 -162 -105 -98 -164 -234 -137 -316 24 -74 126 -116 232
-96 89 17 269 98 360 161 14 11 29 19 32 19 3 0 6 -24 6 -54 0 -68 31 -110 92
-127 35 -9 51 -7 110 12 64 20 197 95 266 149 l27 22 8 -47 c16 -94 74 -137
184 -136 83 0 154 21 266 77 168 85 254 148 396 291 120 120 135 133 149 119
13 -13 8 -22 -50 -83 -101 -106 -146 -170 -164 -230 -20 -68 -8 -120 34 -153
23 -19 37 -21 102 -18 64 3 87 9 160 46 47 23 128 73 180 110 120 85 280 240
280 270 0 45 -29 36 -103 -34 -187 -179 -385 -304 -478 -304 -65 0 -45 53 76
203 47 59 90 120 95 136 10 36 -8 76 -52 112 -31 26 -31 27 -19 72 16 54 8 85
-24 93 -56 14 -104 -35 -110 -112 -5 -54 -37 -99 -154 -214 -142 -139 -349
-260 -499 -291 -53 -11 -63 -11 -86 4 -31 21 -34 61 -10 110 9 18 17 33 18 34
1 2 42 14 92 28 127 37 223 86 288 148 53 49 56 56 56 100 0 52 -16 69 -78 82
-102 21 -313 -87 -449 -228 -120 -126 -352 -277 -424 -277 -26 0 -29 4 -29 31
0 49 49 125 297 464 206 281 282 383 292 389 24 15 220 30 254 19 40 -12 51
-7 59 24 4 14 -1 28 -14 40 -17 15 -37 18 -123 17 l-103 -1 54 76 c29 42 65
93 80 113 37 53 28 68 -43 67 -32 0 -67 -5 -78 -10z m-920 -810 c17 -27 -157
-142 -251 -165 l-28 -7 23 29 c35 45 111 104 166 130 55 26 80 30 90 13z
m1145 -3 c0 -34 -171 -142 -257 -162 -25 -6 -22 -1 31 54 33 33 84 74 115 91
60 33 111 40 111 17z"/>
<path d="M5339 4040 c-60 -60 -17 -151 64 -136 52 10 77 35 84 82 7 55 -19 84
-78 84 -32 0 -47 -6 -70 -30z"/>
<path d="M5254 2401 c-5 -6 -5 -387 0 -392 3 -3 23 -3 45 -1 l41 4 0 64 0 64
35 0 c32 0 38 -5 76 -65 40 -64 41 -65 85 -65 24 0 44 2 44 5 0 2 -18 35 -41
71 l-40 67 25 26 c56 59 56 130 0 186 l-33 34 -117 3 c-63 2 -118 1 -120 -1z
m210 -87 c19 -19 21 -67 4 -82 -7 -5 -38 -12 -68 -13 l-55 -4 -3 58 -3 57 55
0 c36 0 60 -5 70 -16z"/>
<path d="M5896 2398 c-51 -14 -108 -72 -125 -127 -27 -92 15 -196 99 -245 54
-32 144 -29 198 6 23 15 46 37 52 48 9 17 6 22 -24 36 -34 17 -35 16 -66 -9
-56 -47 -131 -32 -165 33 -34 66 -5 172 50 186 43 11 108 -3 127 -26 l18 -22
30 22 c28 20 30 24 17 43 -32 48 -137 75 -211 55z"/>
<path d="M6618 2402 c-27 -3 -28 -6 -29 -65 -1 -34 -1 -68 0 -74 1 -10 -22
-13 -89 -13 l-90 0 0 75 0 75 -40 0 -40 0 0 -195 0 -195 40 0 39 0 3 83 3 82
85 0 85 0 2 -35 c1 -19 2 -56 2 -82 l1 -48 40 0 40 0 0 194 c0 208 1 205 -52
198z"/>
<path d="M6904 2401 c-2 -2 -4 -91 -4 -198 l0 -193 40 0 40 0 -2 197 -3 196
-33 1 c-19 1 -36 -1 -38 -3z"/>
<path d="M7499 2402 l-37 -3 -48 -134 c-27 -74 -51 -135 -54 -135 -4 0 -12 17
-19 38 -7 20 -29 81 -48 135 l-36 97 -43 0 c-50 0 -51 10 14 -160 90 -233 85
-225 130 -228 l40 -3 52 133 c87 223 99 257 92 260 -4 2 -23 2 -43 0z"/>
<path d="M7744 2401 c-5 -6 -5 -386 0 -392 2 -2 65 -3 140 -1 l136 3 0 35 0
34 -101 0 -100 0 3 48 3 47 83 3 82 3 0 29 0 29 -82 3 -83 3 -3 43 -3 42 101
0 101 0 -3 36 -3 35 -133 2 c-74 1 -136 0 -138 -2z"/>
<path d="M4788 2308 c-20 -51 -54 -139 -76 -195 l-40 -103 47 0 c46 0 47 1 61
43 l15 42 71 3 72 3 18 -46 c18 -43 20 -45 62 -45 23 0 42 3 42 6 0 3 -13 38
-29 77 -16 40 -49 124 -73 187 l-45 115 -45 3 -45 3 -35 -93z m106 -72 c23
-71 22 -76 -23 -76 -22 0 -42 4 -45 9 -8 12 35 134 44 124 4 -4 15 -30 24 -57z"/>
</g>
</svg>
