<?xml version="1.0" standalone="no"?>
<!DOCTYPE svg PUBLIC "-//W3C//DTD SVG 20010904//EN"
 "http://www.w3.org/TR/2001/REC-SVG-20010904/DTD/svg10.dtd">
<svg version="1.0" xmlns="http://www.w3.org/2000/svg"
 width="875.000000pt" height="462.000000pt" viewBox="0 0 875.000000 462.000000"
 preserveAspectRatio="xMidYMid meet">

<g transform="translate(0.000000,462.000000) scale(0.100000,-0.100000)"
fill="#000000" stroke="none">
<path d="M1720 3375 c-36 -8 -112 -38 -170 -67 -124 -63 -132 -66 -101 -38 47
40 13 29 -57 -20 -174 -119 -308 -242 -429 -393 l-38 -48 -70 6 c-76 7 -131
32 -129 58 1 10 -3 17 -8 17 -18 0 -3 -43 23 -62 14 -11 57 -25 96 -31 l71
-12 -44 -75 c-84 -143 -118 -288 -89 -386 47 -164 218 -209 480 -127 73 23
240 107 308 155 32 23 43 19 28 -10 -30 -56 2 -122 58 -122 36 0 124 46 200
105 33 25 62 45 65 45 3 0 -2 -16 -10 -35 -29 -69 -8 -115 53 -115 72 0 242
118 377 261 80 85 84 88 105 73 21 -15 21 -16 -49 -92 -105 -114 -136 -193
-88 -226 44 -31 105 -13 228 69 37 25 69 45 72 45 2 0 2 -18 0 -41 -12 -119
143 -116 286 7 53 45 128 150 135 188 7 39 -8 76 -31 76 -40 0 -56 -48 -26
-81 15 -17 15 -21 -9 -61 -14 -24 -52 -69 -86 -101 -92 -88 -186 -121 -215
-74 -27 43 122 235 223 287 50 25 41 42 -15 30 -59 -14 -127 -61 -209 -145
-96 -99 -212 -178 -264 -179 -65 -2 -51 41 63 187 26 32 46 66 46 74 0 8 -16
30 -36 48 -35 33 -36 33 -18 60 13 20 14 29 5 38 -21 21 -46 -6 -49 -53 -3
-39 -12 -50 -105 -144 -151 -151 -303 -244 -340 -207 -17 17 28 100 117 218
42 56 76 104 76 107 0 15 -46 4 -66 -15 l-23 -21 -27 21 c-74 58 -232 2 -392
-139 -29 -26 -98 -72 -155 -102 -188 -103 -305 -140 -433 -140 -98 0 -145 19
-180 71 -64 97 -31 241 101 451 l55 87 62 6 c249 24 604 172 765 319 101 93
127 171 75 229 -23 26 -35 31 -87 35 -33 2 -89 -3 -125 -11z m169 -16 c110
-39 37 -178 -161 -306 -92 -59 -251 -134 -357 -167 -99 -31 -298 -72 -307 -63
-10 10 86 125 171 205 200 191 456 338 591 341 17 1 45 -4 63 -10z m139 -815
c6 -43 -128 -175 -238 -233 -64 -34 -127 -41 -137 -15 -16 41 147 207 252 255
54 25 119 22 123 -7z m972 0 c0 -8 -7 -14 -15 -14 -15 0 -21 21 -9 33 10 9 24
-2 24 -19z"/>
<path d="M6105 3313 c-11 -2 -56 -11 -100 -19 -172 -33 -381 -118 -540 -220
-91 -58 -202 -170 -235 -237 -74 -151 -22 -266 124 -275 104 -7 268 55 345
130 42 41 31 49 -14 9 -76 -66 -220 -121 -318 -121 -97 0 -147 46 -147 135 0
138 147 291 394 410 257 123 428 168 646 168 156 1 196 -8 273 -59 73 -48 96
-155 58 -267 -26 -74 -67 -133 -140 -198 -144 -130 -307 -193 -453 -175 -89
11 -89 10 -1 142 44 66 102 157 130 204 29 47 65 103 82 124 30 38 44 73 19
48 -20 -20 -32 -13 -13 8 10 11 24 20 31 20 14 0 54 38 54 52 0 16 -22 7 -61
-24 -41 -33 -179 -201 -266 -323 -321 -452 -489 -632 -670 -717 -57 -28 -80
-33 -143 -33 -41 0 -83 4 -94 9 -14 7 -18 6 -14 -5 2 -8 22 -20 44 -27 81 -27
254 26 397 121 103 69 253 209 340 317 33 41 63 78 66 82 4 4 24 1 46 -7 96
-34 293 -6 431 60 225 108 359 309 315 471 -23 85 -113 157 -238 189 -54 14
-294 20 -348 8z"/>
<path d="M3826 3230 c-117 -61 -282 -217 -475 -450 -180 -216 -321 -434 -321
-495 0 -37 28 -65 66 -65 49 0 150 54 238 127 52 43 61 42 36 -7 -52 -101 0
-151 103 -99 59 30 123 78 262 197 110 94 183 137 201 119 13 -12 -40 -86
-214 -299 l-23 -28 43 0 c42 0 45 2 102 75 114 145 249 255 314 255 35 0 26
-24 -40 -105 -35 -42 -73 -91 -85 -108 -25 -34 -31 -95 -11 -115 31 -31 122 0
218 75 l45 35 3 -41 c4 -50 40 -84 81 -74 41 10 112 47 171 92 29 22 56 39 58
37 2 -2 -1 -21 -7 -42 -8 -30 -7 -43 4 -61 32 -49 95 -38 210 36 70 44 235
187 235 202 0 6 -33 -18 -72 -53 -172 -153 -305 -224 -324 -173 -8 20 41 105
125 215 39 51 71 96 71 101 0 17 -50 9 -70 -11 -11 -11 -23 -20 -28 -20 -4 0
-13 9 -20 20 -9 16 -23 20 -62 20 -95 0 -196 -57 -336 -189 -94 -88 -180 -147
-224 -153 -49 -6 -36 34 43 139 80 106 97 134 97 157 0 24 -29 46 -62 46 -33
0 -122 -45 -172 -87 -35 -29 -39 -26 -24 15 24 63 -27 90 -99 53 -21 -10 -94
-67 -162 -126 -149 -128 -230 -185 -275 -192 -70 -11 -52 34 78 202 47 60 86
113 86 117 0 4 -11 8 -24 8 -17 0 -54 -29 -128 -103 -147 -147 -287 -237 -345
-222 -22 5 -25 10 -19 37 6 31 76 140 186 291 42 56 77 91 126 124 117 78 284
213 385 310 104 101 155 178 145 219 -9 33 -40 31 -110 -6z m94 -8 c0 -39 -80
-141 -185 -236 -105 -95 -345 -280 -353 -272 -11 11 244 314 342 406 74 70 91
83 134 106 38 19 62 18 62 -4z m795 -673 c20 -62 -221 -269 -312 -269 -63 0
-54 43 25 131 109 121 268 198 287 138z"/>
<path d="M7270 3090 c-9 -4 -47 -49 -85 -99 -69 -89 -70 -90 -123 -97 -29 -3
-79 -4 -112 -2 -50 4 -58 2 -48 -10 10 -11 32 -13 100 -10 48 2 88 3 88 2 0
-2 -43 -61 -96 -131 -53 -70 -121 -165 -151 -211 -67 -100 -142 -164 -268
-228 -67 -34 -106 -47 -152 -51 -55 -5 -62 -3 -72 15 -23 43 40 142 91 142 33
0 169 62 205 93 27 24 33 36 31 61 -3 30 -5 31 -52 34 -41 3 -63 -3 -122 -33
-175 -86 -268 -232 -200 -312 22 -25 31 -28 83 -27 33 1 81 10 114 23 67 25
183 94 222 129 30 28 34 21 12 -18 -31 -54 -14 -119 34 -135 30 -9 121 28 203
81 40 27 78 52 85 56 8 6 10 -3 6 -31 -7 -49 16 -86 64 -102 103 -34 313 74
493 254 91 90 91 90 111 70 20 -19 20 -20 -47 -94 -101 -113 -126 -176 -84
-214 50 -46 172 -5 318 105 76 58 174 150 158 150 -4 0 -38 -27 -74 -61 -138
-125 -299 -211 -336 -179 -9 7 -16 20 -16 29 0 22 45 93 103 160 26 30 47 63
47 72 0 10 -16 31 -36 47 -36 30 -36 30 -18 57 16 25 16 27 0 43 -16 16 -18
16 -32 -2 -8 -11 -14 -31 -14 -46 0 -31 -58 -103 -148 -183 -113 -99 -279
-186 -357 -187 -67 0 -83 25 -55 87 21 48 25 51 114 81 85 28 148 64 181 104
30 35 30 41 8 63 -43 44 -194 -21 -316 -135 -131 -121 -251 -194 -310 -188
-68 6 -44 61 137 313 161 224 226 309 243 318 8 5 57 10 109 11 52 0 94 4 94
8 0 15 -53 21 -122 14 l-70 -6 31 39 c18 22 47 62 66 90 l35 51 -27 0 c-16 0
-35 -5 -43 -10z m-615 -520 c9 -14 -18 -48 -61 -78 -38 -25 -165 -74 -173 -66
-8 8 112 123 143 138 36 18 82 21 91 6z m780 -1 c4 -6 -13 -30 -38 -54 -41
-39 -107 -72 -184 -91 l-27 -7 34 43 c63 80 193 146 215 109z"/>
<path d="M3657 2742 c-25 -28 -22 -52 8 -52 28 0 68 35 62 53 -6 20 -52 19
-70 -1z"/>
<path d="M3283 1583 c-26 -60 -83 -196 -83 -200 0 -2 7 -3 15 -3 8 0 21 14 30
30 15 29 19 30 79 30 63 0 65 0 71 -30 5 -21 13 -30 26 -30 10 0 19 2 19 5 0
3 -23 62 -51 130 -32 77 -57 125 -66 125 -8 0 -26 -26 -40 -57z m64 -53 c19
-45 20 -50 5 -51 -25 -2 -64 0 -68 4 -5 4 30 97 36 97 4 0 16 -22 27 -50z"/>
<path d="M3600 1510 c0 -109 2 -130 15 -130 11 0 15 12 15 50 l0 50 38 0 c34
0 39 -4 62 -48 17 -32 32 -48 48 -50 22 -3 22 -3 -8 49 -30 50 -30 52 -12 65
26 18 36 61 22 95 -14 34 -54 49 -126 49 l-54 0 0 -130z m119 89 c25 -9 31
-16 31 -40 0 -35 -27 -51 -78 -47 -34 3 -37 6 -40 36 -6 57 22 73 87 51z"/>
<path d="M4013 1625 c-120 -52 -78 -245 53 -245 58 0 110 25 94 45 -11 13 -15
13 -33 0 -61 -43 -147 7 -147 85 0 70 71 116 132 85 39 -19 48 -19 48 0 0 19
-51 45 -87 45 -15 -1 -42 -7 -60 -15z"/>
<path d="M4336 1594 c-3 -26 -6 -84 -6 -130 0 -65 3 -84 14 -84 18 0 26 22 26
70 l0 38 61 4 c70 4 79 -5 79 -71 0 -30 4 -41 15 -41 13 0 15 21 15 131 0 100
-3 130 -12 127 -8 -3 -14 -26 -16 -56 l-3 -52 -69 0 -69 0 -3 52 c-4 66 -23
74 -32 12z"/>
<path d="M4727 1633 c-4 -3 -7 -62 -7 -130 0 -103 2 -123 15 -123 13 0 15 21
15 130 0 119 -4 142 -23 123z"/>
<path d="M5307 1633 c-4 -3 -7 -62 -7 -130 l0 -123 85 0 c69 0 85 3 85 15 0
12 -14 15 -70 15 l-70 0 0 40 0 39 57 3 c78 4 83 26 6 30 l-58 3 -3 38 c-2 25
1 37 10 38 7 1 22 2 33 3 11 1 37 3 58 4 25 1 37 7 37 17 0 12 -15 15 -78 15
-43 0 -82 -3 -85 -7z"/>
<path d="M4913 1618 c3 -7 26 -62 51 -123 25 -60 51 -111 59 -113 10 -2 30 37
65 123 42 104 48 125 34 125 -12 0 -27 -26 -52 -87 -39 -102 -47 -113 -56 -87
-45 126 -68 174 -86 174 -12 0 -18 -5 -15 -12z"/>
</g>
</svg>
